<svg viewBox="0 0 163.2 25.7" xmlns="http://www.w3.org/2000/svg"><path d="M9.6 6.7c-2.8 0-5.1.9-6.9 2.7C.9 11.3 0 13.5 0 16.2s.9 5 2.8 6.8c1.8 1.8 4.3 2.7 7.3 2.7 3.4 0 6-1.1 7.7-3.3l-4.3-3c-.9.8-2 1.3-3.3 1.3-2.1 0-3.4-.7-4-2.2h12.4c.2-.7.3-1.4.3-2.2 0-2.7-.9-5-2.6-6.8-1.8-1.9-4-2.8-6.7-2.8zm-3.5 7.6c.5-1.7 1.7-2.5 3.5-2.5s2.9.8 3.4 2.5zm32-7.1h-6.9l-4.6 7.5V0h-6v25.2h6v-7.7l5.1 7.7h6.7l-6.3-9zm8.6-.5c-2.7 0-4.9.9-6.8 2.8-1.9 1.8-2.8 4.1-2.8 6.8s.9 4.9 2.8 6.8c1.9 1.8 4.1 2.8 6.8 2.8s5-.9 6.8-2.8c1.9-1.8 2.8-4.1 2.8-6.8s-.9-4.9-2.8-6.8c-1.8-1.9-4.1-2.8-6.8-2.8zm2.6 12.2c-.7.7-1.6 1-2.6 1s-1.9-.3-2.6-1-1-1.6-1-2.7.3-2 1-2.7 1.5-1 2.6-1 1.9.3 2.6 1 1 1.6 1 2.7c.1 1.1-.3 2-1 2.7zM78.7 6.7c-2.2 0-4 .8-5.2 2.3-1-1.5-2.5-2.3-4.6-2.3s-3.8.7-4.9 2.2V7.2h-6v18h6v-9.8c0-.9.2-1.7.6-2.2s1-.8 1.9-.8c1.5 0 2.3.8 2.3 2.5v10.3h6v-9.8c0-.9.2-1.7.6-2.2s1-.8 1.9-.8c1.5 0 2.2.8 2.2 2.5v10.3h6v-11c0-2.3-.6-4.2-1.8-5.5s-2.9-2-5-2zm29.8 0c-2.2 0-4 .8-5.2 2.3-1-1.5-2.5-2.3-4.6-2.3s-3.8.7-4.9 2.2V7.2h-6v18h6v-9.8c0-.9.2-1.7.6-2.2s1-.8 1.9-.8c1.5 0 2.3.8 2.3 2.5v10.3h6v-9.8c0-.9.2-1.7.6-2.2s1-.8 1.9-.8c1.5 0 2.2.8 2.2 2.5v10.3h6v-11c0-2.3-.6-4.2-1.8-5.5-1.3-1.3-2.9-2-5-2zm21.8 2.2c-1.2-1.4-2.9-2.2-5.1-2.2-2.4 0-4.4.9-6 2.7s-2.4 4.1-2.4 6.8.8 5 2.4 6.8 3.6 2.7 6 2.7c2.2 0 3.9-.7 5.1-2.2v1.7h6v-18h-6zM129.2 19c-.7.7-1.6 1.1-2.7 1.1s-2-.4-2.7-1.1-1-1.7-1-2.8c0-1.2.3-2.1 1-2.8s1.6-1.1 2.7-1.1 2 .4 2.7 1.1 1 1.7 1 2.8c.1 1.2-.3 2.1-1 2.8zm15.6-8.5V7.2h-6v18h6v-7.5c0-1.6.6-2.8 1.7-3.5s2.4-1 3.7-.8V6.8c-1.2 0-2.4.3-3.4 1s-1.7 1.6-2 2.7zm18.4 2.4V7.2h-3.7v-5l-6 1.8v3.2h-2.7v5.7h2.7v5.4c0 2.9.7 4.8 2.2 5.9s4 1.4 7.5 1v-5.4c-1.3.1-2.3 0-2.9-.2s-.9-.7-.9-1.5v-5.2z"/></svg>